<?xml version="1.0" standalone="no"?>
<!DOCTYPE svg PUBLIC "-//W3C//DTD SVG 20010904//EN"
 "http://www.w3.org/TR/2001/REC-SVG-20010904/DTD/svg10.dtd">
<svg version="1.0" xmlns="http://www.w3.org/2000/svg"
 width="300.000000pt" height="63.000000pt" viewBox="0 0 300.000000 63.000000"
 preserveAspectRatio="xMidYMid meet">
<metadata>
Created by potrace 1.10, written by Peter Selinger 2001-2011
</metadata>
<g transform="translate(0.000000,63.000000) scale(0.100000,-0.100000)"
fill="#000000" stroke="none">
<path d="M70 500 l0 -45 160 3 160 3 0 -35 0 -36 -160 0 -160 0 0 -125 0 -125
160 0 c190 0 221 8 240 65 7 20 9 57 6 83 -6 55 -6 50 0 128 5 57 4 64 -23 93
l-28 30 -178 3 -177 3 0 -45z m361 -7 c21 -24 17 -278 -4 -301 -13 -15 -38
-17 -169 -16 l-153 0 -2 87 -2 87 138 0 c153 0 162 4 176 67 5 25 2 36 -14 52
-19 19 -33 21 -161 21 -87 0 -140 4 -140 10 0 6 60 10 159 10 135 0 161 -2
172 -17z"/>
<path d="M147 312 c-22 -25 -21 -75 1 -95 15 -13 38 -17 108 -16 49 1 103 4
119 8 27 5 30 10 33 49 5 67 -4 72 -133 72 -96 0 -114 -3 -128 -18z m243 -47
l0 -35 -115 0 -115 0 0 35 0 35 115 0 115 0 0 -35z"/>
<path d="M540 543 c0 -2 -1 -92 -1 -200 l0 -198 46 -3 45 -3 -2 203 -3 203
-42 0 c-24 0 -43 -1 -43 -2z m53 -195 c5 -121 4 -164 -5 -169 -16 -10 -25 5
-22 34 1 12 3 84 3 160 1 75 5 137 9 137 5 0 12 -73 15 -162z"/>
<path d="M670 500 l0 -45 102 3 c57 2 121 2 142 0 l40 -3 -100 -64 c-54 -36
-118 -80 -141 -99 -42 -32 -43 -35 -43 -93 l0 -59 200 0 200 0 0 45 0 44 -140
3 -140 3 140 92 140 92 0 63 0 63 -200 0 -200 0 0 -45z m266 10 l104 0 0 -37
c0 -37 -3 -40 -108 -110 -59 -40 -120 -83 -137 -97 -29 -24 -29 -25 -12 -43
14 -14 35 -18 95 -19 148 -2 162 -4 162 -17 0 -9 -31 -12 -127 -11 -230 2
-213 -1 -213 39 0 30 7 39 53 73 28 21 78 54 110 73 32 18 69 45 82 59 23 24
24 27 9 48 -14 21 -23 22 -135 22 -65 0 -119 4 -119 8 0 19 18 24 74 18 32 -3
106 -6 162 -6z"/>
<path d="M1271 524 c-12 -15 -21 -30 -21 -34 0 -4 -36 -83 -80 -174 -44 -92
-80 -169 -80 -172 0 -2 22 -4 48 -4 l48 0 65 140 c35 77 67 140 72 140 4 0 26
-39 49 -87 23 -49 44 -91 46 -95 2 -5 -30 -8 -70 -8 l-74 0 -19 -37 c-11 -21
-21 -41 -23 -44 -1 -4 71 -7 162 -7 l164 0 -90 191 c-49 106 -96 198 -105 205
-28 21 -70 15 -92 -14z m86 -26 c8 -11 38 -75 125 -265 11 -23 17 -47 13 -53
-8 -13 -205 -9 -205 5 0 6 26 12 58 15 63 5 93 22 89 49 -6 36 -80 178 -99
190 -28 18 -45 -2 -94 -109 -21 -47 -49 -102 -62 -124 -34 -55 -48 -32 -18 30
13 27 40 85 60 129 66 142 68 145 97 145 15 0 31 -6 36 -12z"/>
<path d="M1579 546 c0 -3 -1 -25 -1 -47 l-1 -42 151 2 152 2 0 -35 0 -36 -150
0 -150 0 0 -126 0 -125 43 3 42 3 0 78 0 77 108 0 c77 0 109 -4 112 -12 2 -7
7 -43 10 -81 l7 -67 42 0 c24 0 45 2 48 5 3 3 -2 38 -10 78 -8 39 -14 116 -13
170 1 91 0 99 -23 122 -25 24 -29 25 -180 25 -85 0 -161 3 -170 6 -9 3 -16 3
-17 0z m352 -58 c6 -10 10 -52 9 -91 -1 -40 1 -105 5 -144 6 -53 5 -73 -4 -73
-6 0 -11 2 -11 4 0 2 -5 27 -10 56 -16 84 -26 90 -145 90 -128 0 -137 -6 -143
-89 -7 -92 -22 -73 -22 27 l0 87 126 -3 c150 -4 174 5 174 65 0 66 -15 73
-167 73 -85 0 -133 4 -133 10 0 7 54 10 155 9 144 -1 156 -2 166 -21z"/>
<path d="M2033 533 c-2 -6 -3 -25 -1 -43 l3 -32 153 1 152 2 0 -36 0 -35 -155
0 -156 0 3 -122 3 -123 44 0 44 0 -2 78 -2 77 109 0 110 0 5 -32 c3 -18 9 -54
13 -80 l6 -48 44 0 c24 0 44 5 44 11 0 28 -22 157 -30 176 -6 14 -6 25 0 28
16 10 12 113 -5 145 -9 16 -25 32 -38 35 -12 2 -93 6 -181 7 -113 2 -160 0
-163 -9z m352 -35 c4 -4 7 -41 7 -83 0 -42 5 -112 13 -156 7 -44 9 -82 5 -84
-13 -8 -27 19 -33 63 -3 23 -12 54 -21 67 -16 24 -21 25 -125 25 -128 0 -133
-3 -139 -91 -2 -32 -8 -59 -13 -59 -12 0 -21 58 -17 120 l3 55 129 -3 c121 -3
130 -2 152 19 28 26 31 65 8 97 -14 21 -22 22 -150 22 -88 0 -134 4 -134 11 0
12 303 9 315 -3z"/>
<path d="M2545 532 c-14 -7 -29 -21 -35 -32 -5 -10 -10 -83 -10 -163 0 -197
-9 -189 225 -195 l175 -4 0 46 0 45 -156 3 -157 3 -2 33 -3 32 159 0 159 0 0
45 0 45 -157 0 -158 0 1 32 1 33 156 0 157 0 0 45 0 45 -165 0 c-115 0 -173
-4 -190 -13z m325 -32 c0 -6 -51 -10 -133 -10 -156 0 -177 -8 -177 -68 0 -55
20 -63 176 -69 74 -3 134 -10 134 -14 0 -5 -63 -9 -139 -9 -156 0 -171 -6
-171 -65 0 -59 15 -65 171 -65 86 0 139 -4 139 -10 0 -6 -53 -10 -137 -11
-160 -1 -174 -1 -190 13 -18 14 -18 289 -1 306 15 15 328 17 328 2z"/>
</g>
</svg>
